<svg width="40.000000" height="40.000000" viewBox="0 0 40 40" fill="none" xmlns="http://www.w3.org/2000/svg" xmlns:xlink="http://www.w3.org/1999/xlink">
	<desc>
			Created with Pixso.
	</desc>
	<defs>
		<clipPath id="clip2054_7144">
			<rect id="X" rx="-0.500000" width="23.000000" height="23.000000" transform="translate(8.500000 8.500000)" fill="white" fill-opacity="0"/>
		</clipPath>
	</defs>
	<rect id="Button with icon" rx="19.500000" width="39.000000" height="39.000000" transform="translate(0.500000 0.500000)" fill="#FFFFFF" fill-opacity="1.000000"/>
	<g clip-path="url(#clip2054_7144)">
		<path id="Vector" d="M21.12 18.85L26.52 12.5L25.24 12.5L20.56 18.01L16.81 12.5L12.5 12.5L18.16 20.83L12.5 27.5L13.77 27.5L18.72 21.67L22.68 27.5L27 27.5L21.12 18.85L21.12 18.85ZM19.37 20.91L18.8 20.08L14.24 13.47L16.2 13.47L19.88 18.8L20.46 19.63L25.24 26.56L23.28 26.56L19.37 20.91L19.37 20.91Z" fill="#FFFFFF" fill-opacity="1.000000" fill-rule="nonzero"/>
		<path id="Vector" d="M19.97 17.15L16.81 12.5L12.5 12.5L18.14 20.81L18.16 20.83L18.13 20.87L13.34 26.5L13.03 26.86L12.5 27.5L13.77 27.5L18.05 22.46L18.7 21.7L18.72 21.67L18.74 21.69L19.31 22.53L21.01 25.04L22.68 27.5L27 27.5L26.32 26.5L21.71 19.7L21.14 18.87L21.12 18.85L21.12 18.85L21.12 18.85L21.13 18.84L25.67 13.5L25.99 13.13L26.52 12.5L25.24 12.5L21.23 17.22L20.7 17.85L20.56 18.01L20.54 17.99L20.45 17.85L19.97 17.15ZM20.04 19.03L19.88 18.8L16.22 13.5L16.2 13.47L14.24 13.47L14.25 13.5L18.78 20.06L18.8 20.08L19.37 20.91L19.37 20.91L19.39 20.93L21.84 24.48L23.23 26.5L23.28 26.56L25.24 26.56L25.2 26.5L24.55 25.56L20.47 19.65L20.46 19.63L20.04 19.03L20.04 19.03Z" fill="#000000" fill-opacity="1.000000" fill-rule="evenodd"/>
	</g>
</svg>
